<?xml version="1.0" encoding="utf-8"?>
<!-- Generator: Adobe Illustrator 24.1.3, SVG Export Plug-In . SVG Version: 6.00 Build 0)  -->
<svg version="1.1" id="Layer_1" xmlns="http://www.w3.org/2000/svg" xmlns:xlink="http://www.w3.org/1999/xlink" x="0px" y="0px"
	 viewBox="0 0 26.2 24.1" style="enable-background:new 0 0 26.2 24.1;" xml:space="preserve">
<style type="text/css">
	.st0{fill:#FFFFFF;}
</style>
<path class="st0" d="M25.2,4.4H4.6L4.3,1C4.3,0.4,3.8,0,3.3,0H1.1C0.5,0,0,0.5,0,1.1s0.5,1.1,1.1,1.1h1.2L3.5,16
	c0.1,1.1,0.7,2.1,1.6,2.8c-1.1,1.4-0.9,3.5,0.6,4.6c1.4,1.1,3.5,0.9,4.6-0.6c0.7-0.9,0.9-2.1,0.5-3.1h5.9c-0.6,1.7,0.3,3.6,2,4.2
	c1.7,0.6,3.6-0.3,4.2-2c0.6-1.7-0.3-3.6-2-4.2c-0.4-0.1-0.7-0.2-1.1-0.2h-12c-0.8,0-1.5-0.5-1.8-1.2l17.2-1c0.5,0,0.9-0.4,1-0.8
	l2.2-8.8c0.1-0.6-0.2-1.2-0.8-1.3C25.3,4.4,25.3,4.4,25.2,4.4L25.2,4.4z M7.6,21.9c-0.6,0-1.1-0.5-1.1-1.1s0.5-1.1,1.1-1.1
	s1.1,0.5,1.1,1.1l0,0C8.8,21.4,8.3,21.9,7.6,21.9z M19.7,21.9c-0.6,0-1.1-0.5-1.1-1.1s0.5-1.1,1.1-1.1s1.1,0.5,1.1,1.1l0,0
	C20.8,21.4,20.3,21.9,19.7,21.9C19.7,21.9,19.7,21.9,19.7,21.9L19.7,21.9z M22.1,13.2l-16.6,1L4.8,6.5h19L22.1,13.2z"/>
</svg>
