<?xml version="1.0" encoding="utf-8"?>
<!-- Generator: Adobe Illustrator 24.1.3, SVG Export Plug-In . SVG Version: 6.00 Build 0)  -->
<svg version="1.1" id="Layer_1" xmlns="http://www.w3.org/2000/svg" xmlns:xlink="http://www.w3.org/1999/xlink" x="0px" y="0px"
	 viewBox="0 0 10.6 21" style="enable-background:new 0 0 10.6 21;" xml:space="preserve">
<style type="text/css">
	.st0{fill:#FFFFFF;}
</style>
<path class="st0" d="M0.3,11.2h2.3v9.5C2.6,20.9,2.8,21,3,21h3.9c0.2,0,0.3-0.2,0.3-0.3v-9.4h2.6c0.2,0,0.3-0.1,0.3-0.3l0.4-3.5
	c0-0.2-0.1-0.4-0.3-0.4c0,0,0,0,0,0H7.2V4.9c0-0.7,0.4-1,1.1-1h2c0.2,0,0.3-0.2,0.3-0.3V0.3c0-0.2-0.1-0.3-0.3-0.3c0,0,0,0,0,0H7.5
	c0,0-0.1,0-0.1,0C6.1,0,4.9,0.5,4,1.3C3,2.1,2.6,3.3,2.8,4.5v2.6H0.3C0.2,7.1,0,7.2,0,7.4v3.4C0,11,0.2,11.2,0.3,11.2z"/>
</svg>
