<?xml version="1.0" encoding="utf-8"?>
<!-- Generator: Adobe Illustrator 24.1.3, SVG Export Plug-In . SVG Version: 6.00 Build 0)  -->
<svg version="1.1" id="Layer_1" xmlns="http://www.w3.org/2000/svg" xmlns:xlink="http://www.w3.org/1999/xlink" x="0px" y="0px"
	 viewBox="0 0 18.2 18.2" style="enable-background:new 0 0 18.2 18.2;" xml:space="preserve">
<style type="text/css">
	.st0{fill:#FFFFFF;}
</style>
<path class="st0" d="M13.2,0H5C2.2,0,0,2.2,0,5v8.1c0,2.8,2.2,5,5,5h8.1c2.8,0,5-2.2,5-5V5C18.2,2.2,15.9,0,13.2,0z M16.6,13.2
	c0,1.9-1.5,3.4-3.4,3.4H5c-1.9,0-3.4-1.5-3.4-3.4V5c0-1.9,1.5-3.4,3.4-3.4h8.1c1.9,0,3.4,1.5,3.4,3.4V13.2z"/>
<path class="st0" d="M9.1,4.4c-2.6,0-4.7,2.1-4.7,4.7s2.1,4.7,4.7,4.7s4.7-2.1,4.7-4.7C13.8,6.5,11.7,4.4,9.1,4.4z M9.1,12.2
	C7.4,12.2,6,10.8,6,9.1S7.4,6,9.1,6s3.1,1.4,3.1,3.1v0C12.2,10.8,10.8,12.2,9.1,12.2z"/>
<path class="st0" d="M14,3c-0.7,0-1.2,0.5-1.2,1.2s0.5,1.2,1.2,1.2c0.7,0,1.2-0.5,1.2-1.2c0-0.3-0.1-0.6-0.3-0.8
	C14.6,3.2,14.3,3,14,3z"/>
</svg>
