<?xml version="1.0" encoding="utf-8"?>
<!-- Generator: Adobe Illustrator 24.1.3, SVG Export Plug-In . SVG Version: 6.00 Build 0)  -->
<svg version="1.1" id="Layer_1" xmlns="http://www.w3.org/2000/svg" xmlns:xlink="http://www.w3.org/1999/xlink" x="0px" y="0px"
	 viewBox="0 0 21.5 17.5" style="enable-background:new 0 0 21.5 17.5;" xml:space="preserve">
<style type="text/css">
	.st0{fill:#FFFFFF;}
</style>
<g transform="translate(0 0)">
	<path class="st0" d="M21.5,2.1c-0.8,0.4-1.7,0.6-2.5,0.7c0.9-0.5,1.6-1.4,1.9-2.4c-0.9,0.5-1.8,0.9-2.8,1.1
		c-1.7-1.8-4.5-1.9-6.2-0.2c-0.9,0.8-1.4,2-1.4,3.2c0,0.3,0,0.7,0.1,1C7,5.2,3.7,3.6,1.5,0.8c-1.2,2-0.6,4.6,1.4,5.9
		c-0.7,0-1.4-0.2-2-0.5v0c0,2.1,1.5,3.9,3.5,4.3c-0.4,0.1-0.8,0.1-1.2,0.1c-0.3,0-0.6,0-0.8-0.1c0.6,1.8,2.2,3,4.1,3.1
		C5,14.9,3,15.6,1.1,15.6c-0.4,0-0.7,0-1.1-0.1c2,1.3,4.4,2,6.8,2c6.9,0,12.5-5.5,12.6-12.4c0-0.1,0-0.1,0-0.2c0-0.2,0-0.4,0-0.6
		C20.2,3.7,20.9,3,21.5,2.1z"/>
</g>
</svg>
